<svg id="visual" viewBox="0 0 900 400" width="900" height="400" xmlns="http://www.w3.org/2000/svg" xmlns:xlink="http://www.w3.org/1999/xlink" version="1.1"><rect x="0" y="0" width="900" height="400" fill="#2f4a5f"></rect><path d="M0 106L21.5 102.5C43 99 86 92 128.8 97C171.7 102 214.3 119 257.2 126.7C300 134.3 343 132.7 385.8 124.8C428.7 117 471.3 103 514.2 92.3C557 81.7 600 74.3 642.8 78.5C685.7 82.7 728.3 98.3 771.2 108.2C814 118 857 122 878.5 124L900 126L900 0L878.5 0C857 0 814 0 771.2 0C728.3 0 685.7 0 642.8 0C600 0 557 0 514.2 0C471.3 0 428.7 0 385.8 0C343 0 300 0 257.2 0C214.3 0 171.7 0 128.8 0C86 0 43 0 21.5 0L0 0Z" fill="#FFFFFF" stroke-linecap="round" stroke-linejoin="miter"></path></svg>